<?xml version="1.0" encoding="utf-8"?>
<!-- Generator: Adobe Illustrator 28.3.0, SVG Export Plug-In . SVG Version: 6.00 Build 0)  -->
<svg version="1.1" id="Capa_1" xmlns="http://www.w3.org/2000/svg" xmlns:xlink="http://www.w3.org/1999/xlink" x="0px" y="0px"
	 viewBox="0 0 31.9 32" style="enable-background:new 0 0 31.9 32;" xml:space="preserve">
<style type="text/css">
	.st0{fill:#0C396B;}
	.st1{fill:#FFFFFF;}
</style>
<path class="st0" d="M28.1,31.3H3.8c-1.3,0-2.4-1.1-2.4-2.4V3.1c0-1.3,1.1-2.4,2.4-2.4h24.3c1.3,0,2.4,1.1,2.4,2.4v25.9
	C30.5,30.3,29.4,31.3,28.1,31.3z"/>
<g>
	<path class="st1" d="M17.9,18.1C17,19.7,15.2,22,12,22c-5.2,0-8.4-4.2-8.4-9.3s3.3-9.3,7.8-9.3c3.5,0,5.8,2.4,5.8,3.9
		c0,0.6-0.5,1.1-1.1,1.1c-0.6,0-1.1-0.5-1.1-1.1c0-1.7-1-3.6-3.5-3.6c-3.6,0-5.9,4.1-5.9,9.1s2.4,9.1,6.5,9.1c3.2,0,4.9-2.2,5.7-3.7
		L17.9,18.1z"/>
	<g>
		<path class="st1" d="M27.7,28c-0.2,0-0.4,0.1-0.6,0.1c-0.4,0-0.8,0-1.2-0.1c0,0-0.1,0-0.1,0c-1-0.2-2-0.9-2.6-1.7
			c-1.8-2.2-3.8-5.9-5.2-8.1l3.1-5.3c1.2-2,2.1-2.4,3.6-2.4v-0.2h-5.7v0.2c1.5,0,3,0.5,1.9,2.4l-3.9,6.7l0.4,0.8l0,0
			c1.3,2.2,2.8,5.1,4.8,6.8c0.3,0.3,0.6,0.6,1,0.8c0.4,0.3,0.8,0.5,1.3,0.6c0.4,0.2,0.9,0.3,1.4,0.3c0.1,0,0.1,0,0.2,0l0.1,0l0.1,0
			c0.1,0,0.2,0,0.3,0c0.2,0,0.5-0.1,0.7-0.2c0.2-0.1,0.4-0.2,0.6-0.3c0.1-0.1,0.2-0.1,0.3-0.2c0.1-0.1,0.2-0.1,0.3-0.2
			C28.1,27.9,27.9,28,27.7,28z"/>
		<path class="st1" d="M15,25.8c0-0.7,0-1.6,0-2.3l0,0v-0.8v-2.2v-7.6c0-2.1,0.4-2.4,1.9-2.4v-0.2c-1.7,0-4,0-5.7,0v0.2
			c1.5,0,1.9,0.3,1.9,2.4v12.9c0,2.1-0.4,2.4-1.9,2.4v0.2h5.7v-0.2C15.4,28.1,15,27.8,15,25.8z"/>
	</g>
</g>
</svg>
