<?xml version="1.0" encoding="UTF-8"?>
<svg id="Capa_1" xmlns="http://www.w3.org/2000/svg" version="1.1" viewBox="0 0 500 500">
  <!-- Generator: Adobe Illustrator 29.5.1, SVG Export Plug-In . SVG Version: 2.1.0 Build 141)  -->
  <defs>
    <style>
      .st0 {
        fill: #fff;
      }
    </style>
  </defs>
  <path class="st0" d="M286.27,288.24c-17.65,31.37-52.94,76.47-115.69,76.47-101.96,0-164.71-82.35-164.71-182.35S70.59,0,158.82,0c68.63,0,113.73,47.06,113.73,76.47,0,11.76-9.8,21.57-21.57,21.57s-21.57-9.8-21.57-21.57c0-33.33-19.61-70.59-68.63-70.59-70.59,0-115.69,80.39-115.69,178.43s47.06,178.43,127.45,178.43c62.75,0,96.08-43.14,111.76-72.55l1.96-1.96Z"/>
  <g>
    <path class="st0" d="M478.43,482.35c-3.92,0-7.84,1.96-11.76,1.96-7.84,0-15.69,0-23.53-1.96h-1.96c-19.61-3.92-39.22-17.65-50.98-33.33-35.29-43.14-74.51-115.69-101.96-158.82l60.78-103.92c23.53-39.22,41.18-47.06,70.59-47.06v-3.92h-111.76v3.92c29.41,0,58.82,9.8,37.25,47.06l-76.47,131.37,7.84,15.69h0c25.49,43.14,54.9,100,94.12,133.33,5.88,5.88,11.76,11.76,19.61,15.69,7.84,5.88,15.69,9.8,25.49,11.76,7.84,3.92,17.65,5.88,27.45,5.88h13.73c3.92,0,9.8-1.96,13.73-3.92s7.84-3.92,11.76-5.88c1.96-1.96,3.92-1.96,5.88-3.92,1.96-1.96,3.92-1.96,5.88-3.92-7.84-1.96-11.76,0-15.69,0Z"/>
    <path class="st0" d="M229.41,439.22v-45.1h0v-207.84c0-41.18,7.84-47.06,37.25-47.06v-3.92h-111.76v3.92c29.41,0,37.25,5.88,37.25,47.06v252.94c0,41.18-7.84,47.06-37.25,47.06v3.92h111.76v-3.92c-29.41-1.96-37.25-7.84-37.25-47.06Z"/>
  </g>
</svg>